# xmcd CD database file
#
# Track frame offsets:
#	150
#	13355
#	26902
#	36032
#
# Disc length: 653 seconds
#
# Revision: 6
# Processed by: cddbd v1.5.1PL0 Copyright (c) Steve Scherf et al.
# Submitted via: CDex 1.51
#
DISCID=2e028b04
DTITLE=W - 恋のバカンス
DYEAR=2004
DGENRE=JPop
TTITLE0=恋のバカンス
TTITLE1=月影のオポリ (TINTARELLA DI LUNA)
TTITLE2=悲しき16才 (HEARTACHES AT SWEET SIXTEEN)
TTITLE3=恋のバカンス (Instrumental)
EXTD=YEAR: 2004
EXTT0=
EXTT1=
EXTT2=
EXTT3=
PLAYORDER=
